<svg width="50" height="50" viewBox="0 0 50 50" fill="none" xmlns="http://www.w3.org/2000/svg">
<path d="M18.1465 33.2735L15.5197 35.9004C15.158 36.262 14.7438 36.3431 14.2771 36.1436C13.8104 35.9441 13.5774 35.587 13.5781 35.0723V17.2842C13.5781 16.656 13.802 16.1185 14.2497 15.6716C14.6974 15.2246 15.2349 15.0008 15.8623 15H34.1359C34.764 15 35.3019 15.2239 35.7496 15.6716C36.1973 16.1193 36.4208 16.6568 36.42 17.2842V30.9893C36.42 31.6175 36.1966 32.1554 35.7496 32.6031C35.3027 33.0508 34.7648 33.2743 34.1359 33.2735H18.1465ZM24.9991 29.8472C25.3227 29.8472 25.5941 29.7376 25.8134 29.5183C26.0327 29.299 26.1419 29.028 26.1412 28.7052C26.1404 28.3823 26.0308 28.1113 25.8123 27.892C25.5937 27.6727 25.3227 27.5631 24.9991 27.5631C24.6755 27.5631 24.4044 27.6727 24.1859 27.892C23.9674 28.1113 23.8578 28.3823 23.857 28.7052C23.8562 29.028 23.9659 29.2994 24.1859 29.5195C24.406 29.7395 24.677 29.8488 24.9991 29.8472ZM24.9991 25.2789C25.3227 25.2789 25.5941 25.1692 25.8134 24.9499C26.0327 24.7307 26.1419 24.4596 26.1412 24.1368V19.5684C26.1412 19.2448 26.0315 18.9737 25.8123 18.7552C25.593 18.5367 25.3219 18.427 24.9991 18.4263C24.6763 18.4255 24.4052 18.5352 24.1859 18.7552C23.9666 18.9753 23.857 19.2463 23.857 19.5684V24.1368C23.857 24.4604 23.9666 24.7318 24.1859 24.9511C24.4052 25.1704 24.6763 25.2796 24.9991 25.2789Z" fill="currentColor"/>
</svg>
