<svg width="23" height="22" viewBox="0 0 23 22" fill="none" xmlns="http://www.w3.org/2000/svg">
<path d="M4.56839 18.2735L1.94157 20.9004C1.5799 21.262 1.1657 21.3431 0.698965 21.1436C0.232228 20.9441 -0.000759537 20.587 1.86009e-06 20.0723V2.28419C1.86009e-06 1.65604 0.223853 1.11849 0.671554 0.671553C1.11926 0.224612 1.6568 0.000761397 2.28419 0H20.5577C21.1859 0 21.7238 0.223851 22.1715 0.671553C22.6192 1.11925 22.8427 1.6568 22.8419 2.28419V15.9893C22.8419 16.6175 22.6185 17.1554 22.1715 17.6031C21.7246 18.0508 21.1866 18.2743 20.5577 18.2735H4.56839ZM11.421 14.8472C11.7446 14.8472 12.016 14.7376 12.2353 14.5183C12.4546 14.299 12.5638 14.028 12.5631 13.7052C12.5623 13.3823 12.4527 13.1113 12.2341 12.892C12.0156 12.6727 11.7446 12.5631 11.421 12.5631C11.0974 12.5631 10.8263 12.6727 10.6078 12.892C10.3893 13.1113 10.2796 13.3823 10.2789 13.7052C10.2781 14.028 10.3877 14.2994 10.6078 14.5195C10.8278 14.7395 11.0989 14.8488 11.421 14.8472ZM11.421 10.2789C11.7446 10.2789 12.016 10.1692 12.2353 9.94994C12.4546 9.73066 12.5638 9.4596 12.5631 9.13677V4.56838C12.5631 4.24479 12.4534 3.97373 12.2341 3.75521C12.0149 3.53669 11.7438 3.42705 11.421 3.42629C11.0981 3.42553 10.8271 3.53517 10.6078 3.75521C10.3885 3.97526 10.2789 4.24631 10.2789 4.56838V9.13677C10.2789 9.46036 10.3885 9.7318 10.6078 9.95108C10.8271 10.1704 11.0981 10.2796 11.421 10.2789Z" fill="currentColor"/>
</svg>
