<svg width="50" height="50" viewBox="0 0 50 50" fill="none" xmlns="http://www.w3.org/2000/svg">
<path d="M13.75 34.4922V21.8359C13.75 21.3906 13.8498 20.9687 14.0495 20.5703C14.2492 20.1719 14.5244 19.8437 14.875 19.5859L23.3125 13.2578C23.8047 12.8828 24.3672 12.6953 25 12.6953C25.6328 12.6953 26.1953 12.8828 26.6875 13.2578L35.125 19.5859C35.4766 19.8437 35.7522 20.1719 35.9519 20.5703C36.1516 20.9687 36.2509 21.3906 36.25 21.8359V34.4922C36.25 35.2656 35.9744 35.928 35.4231 36.4792C34.8719 37.0305 34.21 37.3056 33.4375 37.3047H29.2187C28.8203 37.3047 28.4866 37.1697 28.2175 36.8997C27.9484 36.6297 27.8134 36.2959 27.8125 35.8984V28.8672C27.8125 28.4687 27.6775 28.135 27.4075 27.8659C27.1375 27.5969 26.8037 27.4619 26.4062 27.4609H23.5937C23.1953 27.4609 22.8616 27.5959 22.5925 27.8659C22.3234 28.1359 22.1884 28.4697 22.1875 28.8672V35.8984C22.1875 36.2969 22.0525 36.6311 21.7825 36.9011C21.5125 37.1711 21.1787 37.3056 20.7812 37.3047H16.5625C15.7891 37.3047 15.1272 37.0295 14.5769 36.4792C14.0266 35.9289 13.7509 35.2666 13.75 34.4922Z" fill="currentColor"/>
</svg>
