<svg width="23" height="25" viewBox="0 0 23 25" fill="none" xmlns="http://www.w3.org/2000/svg">
<path d="M0 21.7969V9.14062C0 8.69531 0.0998435 8.27344 0.299531 7.875C0.499218 7.47656 0.774375 7.14844 1.125 6.89062L9.5625 0.5625C10.0547 0.1875 10.6172 0 11.25 0C11.8828 0 12.4453 0.1875 12.9375 0.5625L21.375 6.89062C21.7266 7.14844 22.0022 7.47656 22.2019 7.875C22.4016 8.27344 22.5009 8.69531 22.5 9.14062V21.7969C22.5 22.5703 22.2244 23.2327 21.6731 23.7839C21.1219 24.3351 20.46 24.6103 19.6875 24.6094H15.4687C15.0703 24.6094 14.7366 24.4744 14.4675 24.2044C14.1984 23.9344 14.0634 23.6006 14.0625 23.2031V16.1719C14.0625 15.7734 13.9275 15.4397 13.6575 15.1706C13.3875 14.9016 13.0537 14.7666 12.6562 14.7656H9.84375C9.44531 14.7656 9.11156 14.9006 8.8425 15.1706C8.57344 15.4406 8.43844 15.7744 8.4375 16.1719V23.2031C8.4375 23.6016 8.3025 23.9358 8.0325 24.2058C7.7625 24.4758 7.42875 24.6103 7.03125 24.6094H2.8125C2.03906 24.6094 1.37719 24.3342 0.826875 23.7839C0.276562 23.2336 0.0009375 22.5712 0 21.7969Z" fill="currentColor"/>
</svg>
