<svg width="50" height="50" viewBox="0 0 50 50" fill="none" xmlns="http://www.w3.org/2000/svg">
<path d="M36.8769 36.5201C36.7959 36.666 36.6793 36.7872 36.5389 36.8715C36.3986 36.9557 36.2393 37 36.0772 37H13.9222C13.7602 36.9998 13.6012 36.9553 13.4609 36.871C13.3207 36.7867 13.2043 36.6655 13.1234 36.5196C13.0425 36.3737 13 36.2083 13 36.0399C13 35.8715 13.0427 35.706 13.1237 35.5602C14.8811 32.401 17.5893 30.1357 20.7499 29.0619C19.1865 28.0942 17.9719 26.6196 17.2925 24.8646C16.6131 23.1096 16.5066 21.1713 16.9892 19.3472C17.4718 17.5232 18.517 15.9143 19.9641 14.7677C21.4112 13.621 23.1803 13 24.9997 13C26.8191 13 28.5882 13.621 30.0353 14.7677C31.4825 15.9143 32.5276 17.5232 33.0102 19.3472C33.4928 21.1713 33.3863 23.1096 32.7069 24.8646C32.0275 26.6196 30.8129 28.0942 29.2496 29.0619C32.4101 30.1357 35.1183 32.401 36.8757 35.5602C36.9569 35.706 36.9998 35.8715 37 36.04C37.0002 36.2085 36.9577 36.374 36.8769 36.5201Z" fill="currentColor"/>
</svg>
