<svg width="24" height="24" viewBox="0 0 24 24" fill="none" xmlns="http://www.w3.org/2000/svg">
<path d="M23.8769 23.5201C23.7959 23.666 23.6793 23.7872 23.5389 23.8715C23.3986 23.9557 23.2393 24 23.0772 24H0.922181C0.760219 23.9998 0.60115 23.9553 0.460949 23.871C0.320748 23.7867 0.204348 23.6655 0.123439 23.5196C0.0425297 23.3737 -4.15502e-05 23.2083 3.04306e-08 23.0399C4.16111e-05 22.8715 0.0426945 22.706 0.123676 22.5602C1.88108 19.401 4.5893 17.1357 7.74986 16.0619C6.18651 15.0942 4.97188 13.6196 4.2925 11.8646C3.61313 10.1096 3.50658 8.17128 3.9892 6.34723C4.47183 4.52318 5.51696 2.9143 6.96408 1.76765C8.4112 0.621007 10.1803 0 11.9997 0C13.8191 0 15.5882 0.621007 17.0353 1.76765C18.4825 2.9143 19.5276 4.52318 20.0102 6.34723C20.4928 8.17128 20.3863 10.1096 19.7069 11.8646C19.0275 13.6196 17.8129 15.0942 16.2496 16.0619C19.4101 17.1357 22.1183 19.401 23.8757 22.5602C23.9569 22.706 23.9998 22.8715 24 23.04C24.0002 23.2085 23.9577 23.374 23.8769 23.5201Z" fill="currentColor"/>
</svg>
