<svg width="50" height="50" viewBox="0 0 50 50" fill="none" xmlns="http://www.w3.org/2000/svg">
<path d="M24.9994 33.6465L18.9723 37.2773C18.7061 37.4467 18.4277 37.5193 18.1373 37.4951C17.8468 37.4709 17.5926 37.3741 17.3748 37.2047C17.157 37.0352 16.9875 36.8237 16.8665 36.57C16.7455 36.3164 16.7213 36.0317 16.7939 35.7161L18.3914 28.8539L13.0542 24.2429C12.8121 24.025 12.6611 23.7767 12.6011 23.4979C12.5411 23.219 12.559 22.9469 12.6548 22.6817C12.7507 22.4164 12.8959 22.1985 13.0905 22.0281C13.2851 21.8577 13.5514 21.7488 13.8893 21.7014L20.9329 21.0841L23.656 14.6214C23.777 14.3309 23.9649 14.1131 24.2195 13.9678C24.4741 13.8226 24.7341 13.75 24.9994 13.75C25.2647 13.75 25.5246 13.8226 25.7793 13.9678C26.0339 14.1131 26.2217 14.3309 26.3428 14.6214L29.0658 21.0841L36.1095 21.7014C36.4484 21.7498 36.7146 21.8587 36.9083 22.0281C37.1019 22.1976 37.2471 22.4154 37.3439 22.6817C37.4408 22.9479 37.4592 23.2205 37.3991 23.4993C37.3391 23.7781 37.1876 24.026 36.9446 24.2429L31.6074 28.8539L33.2049 35.7161C33.2775 36.0307 33.2533 36.3154 33.1323 36.57C33.0112 36.8247 32.8418 37.0362 32.624 37.2047C32.4061 37.3731 32.152 37.47 31.8615 37.4951C31.5711 37.5203 31.2927 37.4477 31.0264 37.2773L24.9994 33.6465Z" fill="currentColor"/>
</svg>
