<svg width="12" height="12" viewBox="0 0 12 12" fill="none" xmlns="http://www.w3.org/2000/svg">
<path d="M5.9997 9.60134L3.09126 11.3534C2.96278 11.4352 2.82845 11.4702 2.68829 11.4585C2.54812 11.4469 2.42548 11.4001 2.32035 11.3184C2.21523 11.2366 2.13347 11.1345 2.07506 11.0121C2.01666 10.8897 2.00498 10.7523 2.04002 10.6L2.81093 7.28861L0.235391 5.06348C0.118587 4.95836 0.0457004 4.83852 0.0167328 4.70396C-0.0122347 4.5694 -0.00359123 4.43811 0.0426634 4.31009C0.0889181 4.18207 0.159001 4.07695 0.252912 3.99472C0.346823 3.91249 0.475308 3.85993 0.638367 3.83703L4.03738 3.53918L5.35144 0.420497C5.40984 0.280331 5.50048 0.175207 5.62336 0.105124C5.74624 0.0350413 5.87168 0 5.9997 0C6.12772 0 6.25317 0.0350413 6.37605 0.105124C6.49892 0.175207 6.58956 0.280331 6.64797 0.420497L7.96202 3.53918L11.361 3.83703C11.5246 3.86039 11.653 3.91296 11.7465 3.99472C11.8399 4.07648 11.91 4.18161 11.9567 4.31009C12.0035 4.43858 12.0123 4.5701 11.9834 4.70466C11.9544 4.83922 11.8813 4.95882 11.764 5.06348L9.18847 7.28861L9.95938 10.6C9.99442 10.7519 9.98274 10.8892 9.92434 11.0121C9.86594 11.135 9.78417 11.2371 9.67905 11.3184C9.57392 11.3997 9.45128 11.4464 9.31111 11.4585C9.17095 11.4707 9.03662 11.4356 8.90814 11.3534L5.9997 9.60134Z" fill="currentColor"/>
</svg>
