<svg width="24" height="24" viewBox="0 0 24 24" fill="none" xmlns="http://www.w3.org/2000/svg">
<path d="M6.40039 2.1H19.6004C20.7004 2.1 21.6004 3 21.6004 4.1V6.3C21.6004 7.1 21.1004 8.1 20.6004 8.6L16.3004 12.4C15.7004 12.9 15.3004 13.9 15.3004 14.7V19C15.3004 19.6 14.9004 20.4 14.4004 20.7L13.0004 21.6C11.7004 22.4 9.90039 21.5 9.90039 19.9V14.6C9.90039 13.9 9.50039 13 9.10039 12.5L5.30039 8.5C4.80039 8 4.40039 7.1 4.40039 6.5V4.2C4.40039 3 5.30039 2.1 6.40039 2.1Z" stroke="#333333" stroke-width="1.5" stroke-miterlimit="10" stroke-linecap="round" stroke-linejoin="round"/>
<path d="M11.93 2.1L7 10" stroke="#333333" stroke-width="1.5" stroke-miterlimit="10" stroke-linecap="round" stroke-linejoin="round"/>
</svg>
