<svg width="24" height="24" viewBox="0 0 24 24" fill="none" xmlns="http://www.w3.org/2000/svg">
<g clip-path="url(#clip0_616_1807)">
<path d="M12.0008 1.79999C12.6645 1.79999 13.2008 2.33624 13.2008 2.99999V3.68624C16.8795 4.21124 19.7895 7.12124 20.3145 10.8H21.0008C21.6645 10.8 22.2008 11.3362 22.2008 12C22.2008 12.6637 21.6645 13.2 21.0008 13.2H20.3145C19.7895 16.8787 16.8795 19.7887 13.2008 20.3137V21C13.2008 21.6637 12.6645 22.2 12.0008 22.2C11.337 22.2 10.8008 21.6637 10.8008 21V20.3137C7.12203 19.7887 4.21203 16.8787 3.68703 13.2H3.00078C2.33703 13.2 1.80078 12.6637 1.80078 12C1.80078 11.3362 2.33703 10.8 3.00078 10.8H3.68703C4.21203 7.12124 7.12203 4.21124 10.8008 3.68624V2.99999C10.8008 2.33624 11.337 1.79999 12.0008 1.79999ZM6.00078 12C6.00078 15.315 8.68578 18 12.0008 18C15.3158 18 18.0008 15.315 18.0008 12C18.0008 8.68499 15.3158 5.99999 12.0008 5.99999C8.68578 5.99999 6.00078 8.68499 6.00078 12ZM12.0008 8.39999C13.9883 8.39999 15.6008 10.0125 15.6008 12C15.6008 13.9875 13.9883 15.6 12.0008 15.6C10.0133 15.6 8.40078 13.9875 8.40078 12C8.40078 10.0125 10.0133 8.39999 12.0008 8.39999Z" fill="currentColor"/>
</g>
<defs>
<clipPath id="clip0_616_1807">
<rect width="24" height="24" fill="white"/>
</clipPath>
</defs>
</svg>
