<svg width="32" height="43" viewBox="0 0 32 43" fill="none" xmlns="http://www.w3.org/2000/svg">
<path d="M32 16C32 24.8366 19.5556 42.0741 16 42.0741C12.4444 42.0741 0 24.8366 0 16C0 7.16344 7.16344 0 16 0C24.8366 0 32 7.16344 32 16Z" fill="#FFD93D"/>
<ellipse cx="15.9991" cy="16" rx="12.4444" ry="12.4444" fill="#8ED6EE"/>
<path d="M24.8891 16C24.8891 13.6425 23.9526 11.3816 22.2856 9.71463C20.6186 8.04765 18.3577 7.11114 16.0002 7.11114C13.6427 7.11114 11.3818 8.04764 9.71482 9.71463C8.04783 11.3816 7.11133 13.6425 7.11133 16L16.0002 16H24.8891Z" fill="#FFE066"/>
<path d="M24.8891 16C24.8891 18.3575 23.9526 20.6184 22.2856 22.2854C20.6186 23.9524 18.3577 24.8889 16.0002 24.8889C13.6427 24.8889 11.3818 23.9524 9.71482 22.2854C8.04783 20.6184 7.11133 18.3575 7.11133 16L16.0002 16H24.8891Z" fill="white"/>
</svg>
