<svg width="24" height="32" viewBox="0 0 24 32" fill="none" xmlns="http://www.w3.org/2000/svg">
<path d="M24 12C24 18.6274 14.6667 31.5556 12 31.5556C9.33333 31.5556 0 18.6274 0 12C0 5.37258 5.37258 0 12 0C18.6274 0 24 5.37258 24 12Z" fill="#FF6F91"/>
<circle cx="11.9993" cy="12" r="9.33333" fill="#8ED6EE"/>
<path d="M18.6673 12C18.6673 10.2319 17.9649 8.53622 16.7147 7.28598C15.4645 6.03573 13.7688 5.33335 12.0007 5.33335C10.2325 5.33335 8.53685 6.03573 7.28661 7.28597C6.03636 8.53622 5.33398 10.2319 5.33398 12L12.0007 12H18.6673Z" fill="#FF85A2"/>
<path d="M18.6673 12C18.6673 13.7681 17.9649 15.4638 16.7147 16.714C15.4645 17.9643 13.7688 18.6666 12.0007 18.6666C10.2325 18.6666 8.53685 17.9643 7.28661 16.714C6.03636 15.4638 5.33398 13.7681 5.33398 12L12.0007 12H18.6673Z" fill="white"/>
</svg>
