<svg width="25" height="33" viewBox="0 0 25 33" fill="none" xmlns="http://www.w3.org/2000/svg">
<path d="M25 12.5C25 19.4036 15.2778 32.8704 12.5 32.8704C9.72222 32.8704 0 19.4036 0 12.5C0 5.59644 5.59644 0 12.5 0C19.4036 0 25 5.59644 25 12.5Z" fill="#5ED3B6"/>
<circle cx="12.5" cy="12.5" r="9.5" fill="white"/>
<path d="M13.8085 7.0051L14.8302 9.06531C14.9695 9.3521 15.341 9.62719 15.6545 9.67987L17.5063 9.99007C18.6905 10.1891 18.9691 11.0553 18.1158 11.9098L16.6762 13.3613C16.4324 13.6072 16.2989 14.0812 16.3743 14.4207L16.7865 16.2175C17.1115 17.6398 16.3627 18.19 15.1146 17.4466L13.379 16.4107C13.0655 16.2234 12.5489 16.2234 12.2296 16.4107L10.4939 17.4466C9.25169 18.19 8.49705 17.6339 8.82212 16.2175L9.23427 14.4207C9.30974 14.0812 9.17622 13.6072 8.93242 13.3613L7.4928 11.9098C6.64528 11.0553 6.91811 10.1891 8.10231 9.99007L9.95408 9.67987C10.2617 9.62719 10.6333 9.3521 10.7726 9.06531L11.7942 7.0051C12.3515 5.8872 13.2571 5.8872 13.8085 7.0051Z" fill="#FFD93D"/>
</svg>
