<svg width="18" height="18" viewBox="0 0 18 18" fill="none" xmlns="http://www.w3.org/2000/svg">
<path d="M12 1.5H6C3 1.5 1.5 3 1.5 6V15.75C1.5 16.1625 1.8375 16.5 2.25 16.5H12C15 16.5 16.5 15 16.5 12V6C16.5 3 15 1.5 12 1.5Z" stroke="white" stroke-width="1.5" stroke-linecap="round" stroke-linejoin="round"/>
<path d="M9.68259 5.87999L5.79009 9.77249C5.64009 9.92249 5.49759 10.215 5.46759 10.425L5.25759 11.91C5.18259 12.45 5.55759 12.825 6.09759 12.75L7.58258 12.54C7.79258 12.51 8.08509 12.3675 8.23509 12.2175L12.1276 8.32499C12.7951 7.65749 13.1176 6.87749 12.1276 5.88749C11.1376 4.88999 10.3576 5.20499 9.68259 5.87999Z" stroke="white" stroke-width="1.5" stroke-miterlimit="10" stroke-linecap="round" stroke-linejoin="round"/>
<path d="M9.12695 6.435C9.45695 7.6125 10.3795 8.5425 11.5645 8.8725" stroke="white" stroke-width="1.5" stroke-miterlimit="10" stroke-linecap="round" stroke-linejoin="round"/>
</svg>
